# xmcd
#
# Track frame offsets: 
#        150
#        24820
#        36760
#        47234
#        68296
#        83041
#        106800
#        132090
#        149517
#        175718
#        198900
#        212300
#        225702
#
# Disc length: 3295 seconds
#
# Revision: 0
# Processed by: cddbd v1.5.1PL2 Copyright (c) Steve Scherf et al.
# Submitted via: ExactAudioCopy v0.95b4
#
DISCID=9c0cdd0d
DTITLE=Don Walker - Cutting Back
DYEAR=2006
DGENRE=Blues
TTITLE0=Get Along
TTITLE1=I Want My Kids To Look Like You
TTITLE2=Yakuza Girls
TTITLE3=Four In The Morning
TTITLE4=Silos
TTITLE5=No Reason
TTITLE6=Fallen Angel
TTITLE7=My Ex-Wife
TTITLE8=Cutting Back
TTITLE9=Sweet Eyes
TTITLE10=At The Piccolo Bar
TTITLE11=Barkly Highway West
TTITLE12=The Way You Are Tonight
EXTD=
EXTT0=
EXTT1=
EXTT2=
EXTT3=
EXTT4=
EXTT5=
EXTT6=
EXTT7=
EXTT8=
EXTT9=
EXTT10=
EXTT11=
EXTT12=
PLAYORDER=
